<?xml version="1.0" encoding="UTF-8"?>
<svg xmlns="http://www.w3.org/2000/svg" xmlns:xlink="http://www.w3.org/1999/xlink" viewBox="0 0 160 160" width="160px" height="160px">
<g id="surface365876790">
<path style=" stroke:none;fill-rule:nonzero;fill:rgb(89.803922%,59.607846%,60.784316%);fill-opacity:1;" d="M 52.96875 15.3125 L 51.109375 16.179688 C 51.109375 16.179688 42.191406 20.160156 39.105469 28.886719 C 36.496094 36.253906 38.96875 43.601562 39.835938 45.8125 C 39.410156 46.574219 38.4375 48.402344 37.066406 51.59375 C 34.203125 42.917969 25.421875 38.25 25.421875 38.25 L 23.628906 37.257812 L 22.679688 39.074219 C 22.679688 39.074219 18.066406 47.585938 20.902344 56.316406 C 23.515625 64.363281 30.941406 68.792969 32.132812 69.464844 C 32.007812 70.734375 31.996094 71.800781 32.011719 72.660156 C 32.011719 72.757812 32 72.855469 32 72.953125 C 32 74.203125 32.046875 75.421875 32.125 76.617188 C 26.480469 71.066406 18.382812 70.019531 18.382812 70.019531 L 16.355469 69.722656 L 16.109375 71.761719 C 16.109375 71.761719 14.828125 81.074219 20.402344 88.046875 C 25.980469 95.019531 35.617188 96.246094 35.617188 96.246094 L 37.644531 96.542969 L 37.660156 96.425781 C 38.433594 97.878906 39.28125 99.265625 40.175781 100.609375 C 38.113281 100.074219 36.058594 99.914062 34.125 100.003906 C 27.984375 100.285156 23.082031 102.921875 23.082031 102.921875 L 21.261719 103.863281 L 22.246094 105.660156 C 22.246094 105.660156 26.710938 114.136719 35.457031 116.601562 C 44.15625 119.054688 52.796875 114.441406 52.886719 114.390625 C 54.0625 115.378906 55.246094 116.363281 56.445312 117.285156 C 56.792969 117.550781 57.136719 117.796875 57.484375 118.058594 C 56.90625 118.015625 56.320312 117.992188 55.722656 118.007812 C 47.089844 118.238281 40.53125 124.941406 40.53125 124.941406 L 39.066406 126.378906 L 40.542969 127.804688 C 40.542969 127.804688 46.964844 134.222656 55.597656 133.996094 C 63.628906 133.78125 69.632812 128.167969 70.464844 127.355469 C 72.746094 128.980469 74.855469 130.566406 76.820312 132.152344 C 73.984375 134.890625 71.664062 137.832031 70.171875 141.1875 C 69.882812 141.839844 69.960938 142.597656 70.382812 143.175781 C 70.800781 143.753906 71.5 144.066406 72.210938 143.988281 C 72.921875 143.914062 73.539062 143.464844 73.828125 142.8125 C 75.078125 140.003906 77.238281 137.394531 80 134.835938 C 82.761719 137.394531 84.921875 140.003906 86.171875 142.8125 C 86.460938 143.464844 87.078125 143.914062 87.789062 143.988281 C 88.5 144.066406 89.199219 143.753906 89.617188 143.175781 C 90.039062 142.597656 90.117188 141.839844 89.828125 141.1875 C 88.335938 137.832031 86.015625 134.890625 83.179688 132.152344 C 85.144531 130.566406 87.253906 128.980469 89.535156 127.355469 C 90.367188 128.167969 96.371094 133.78125 104.402344 133.996094 C 113.035156 134.222656 119.457031 127.804688 119.457031 127.804688 L 120.933594 126.378906 L 119.46875 124.941406 C 119.46875 124.941406 112.910156 118.238281 104.277344 118.007812 C 103.667969 117.992188 103.078125 118.023438 102.496094 118.070312 C 102.847656 117.804688 103.203125 117.554688 103.554688 117.285156 C 104.757812 116.359375 105.949219 115.390625 107.128906 114.398438 C 107.265625 114.472656 115.867188 119.046875 124.542969 116.601562 C 133.289062 114.136719 137.753906 105.660156 137.753906 105.660156 L 138.738281 103.863281 L 136.917969 102.921875 C 136.917969 102.921875 132.015625 100.285156 125.875 100.003906 C 123.9375 99.914062 121.878906 100.074219 119.8125 100.613281 C 119.820312 100.597656 119.828125 100.574219 119.835938 100.558594 C 120.722656 99.226562 121.570312 97.867188 122.339844 96.425781 L 122.355469 96.542969 L 124.382812 96.246094 C 124.382812 96.246094 134.019531 95.019531 139.597656 88.046875 C 145.171875 81.074219 143.894531 71.761719 143.894531 71.761719 L 143.648438 69.722656 L 141.617188 70.019531 C 141.617188 70.019531 133.519531 71.066406 127.875 76.617188 C 127.949219 75.449219 127.992188 74.253906 127.996094 73.03125 C 128.03125 72.144531 128.011719 70.929688 127.867188 69.460938 C 129.023438 68.808594 136.476562 64.382812 139.097656 56.316406 C 141.933594 47.585938 137.320312 39.074219 137.320312 39.074219 L 136.371094 37.257812 L 134.578125 38.25 C 134.578125 38.25 125.796875 42.917969 122.933594 51.59375 C 121.5625 48.402344 120.589844 46.574219 120.164062 45.8125 C 121.03125 43.601562 123.503906 36.253906 120.894531 28.886719 C 117.808594 20.160156 108.890625 16.179688 108.890625 16.179688 L 107.03125 15.3125 L 106.210938 17.195312 C 106.210938 17.195312 102.019531 26.371094 105.105469 35.097656 C 107.878906 42.929688 115.023438 46.757812 116.519531 47.496094 C 116.84375 48.09375 118.292969 50.816406 119.835938 54.675781 C 114.519531 50.8125 108.382812 50.019531 108.382812 50.019531 L 106.351562 49.722656 L 106.105469 51.761719 C 106.105469 51.761719 104.828125 61.074219 110.402344 68.046875 C 114.539062 73.214844 120.886719 75.21875 123.902344 75.914062 C 123.65625 80.476562 122.839844 84.574219 121.578125 88.296875 C 120.136719 81.738281 115.414062 77.171875 115.414062 77.171875 L 114 75.753906 L 112.585938 77.171875 C 112.585938 77.171875 106 83.511719 106 92 C 106 97.976562 109.226562 102.808594 111.15625 105.191406 C 108.75 107.746094 106.113281 110.070312 103.378906 112.28125 C 105.164062 105.601562 102.660156 99.292969 102.660156 99.292969 L 101.933594 97.375 L 100.035156 98.148438 C 100.035156 98.148438 91.585938 101.390625 88.078125 108.976562 C 85.1875 115.222656 86.804688 121.582031 87.492188 123.726562 C 84.832031 125.578125 82.320312 127.433594 80 129.355469 C 77.679688 127.433594 75.167969 125.578125 72.507812 123.726562 C 73.195312 121.582031 74.8125 115.222656 71.921875 108.976562 C 68.414062 101.390625 59.964844 98.148438 59.964844 98.148438 L 58.066406 97.375 L 57.339844 99.292969 C 57.339844 99.292969 54.835938 105.601562 56.621094 112.28125 C 53.886719 110.070312 51.25 107.746094 48.84375 105.191406 C 50.777344 102.808594 54 97.976562 54 92 C 54 83.511719 47.414062 77.171875 47.414062 77.171875 L 46 75.753906 L 44.585938 77.171875 C 44.585938 77.171875 39.863281 81.738281 38.421875 88.296875 C 37.160156 84.574219 36.34375 80.476562 36.097656 75.914062 C 39.113281 75.21875 45.460938 73.214844 49.597656 68.046875 C 55.171875 61.074219 53.890625 51.761719 53.890625 51.761719 L 53.644531 49.722656 L 51.617188 50.019531 C 51.617188 50.019531 45.5 50.808594 40.191406 54.660156 C 41.804688 50.644531 43.152344 48.097656 43.480469 47.496094 C 44.976562 46.757812 52.121094 42.929688 54.894531 35.097656 C 57.980469 26.371094 53.789062 17.195312 53.789062 17.195312 Z M 50.78125 21.132812 C 51.613281 23.691406 52.941406 28.617188 51.121094 33.765625 C 49.328125 38.835938 45.441406 41.507812 43.21875 42.851562 C 42.386719 40.292969 41.058594 35.367188 42.878906 30.21875 C 44.671875 25.148438 48.558594 22.476562 50.78125 21.132812 Z M 109.21875 21.132812 C 111.441406 22.476562 115.328125 25.148438 117.121094 30.21875 C 118.941406 35.367188 117.613281 40.292969 116.78125 42.851562 C 114.558594 41.507812 110.671875 38.835938 108.878906 33.765625 C 107.058594 28.617188 108.386719 23.691406 109.21875 21.132812 Z M 32 30 C 30.894531 30 30 30.894531 30 32 C 30 33.105469 30.894531 34 32 34 C 33.105469 34 34 33.105469 34 32 C 34 30.894531 33.105469 30 32 30 Z M 128 30 C 126.894531 30 126 30.894531 126 32 C 126 33.105469 126.894531 34 128 34 C 129.105469 34 130 33.105469 130 32 C 130 30.894531 129.105469 30 128 30 Z M 60 40 C 58.894531 40 58 40.894531 58 42 C 58 43.105469 58.894531 44 60 44 C 61.105469 44 62 43.105469 62 42 C 62 40.894531 61.105469 40 60 40 Z M 100 40 C 98.894531 40 98 40.894531 98 42 C 98 43.105469 98.894531 44 100 44 C 101.105469 44 102 43.105469 102 42 C 102 40.894531 101.105469 40 100 40 Z M 25.4375 43.207031 C 27.640625 44.726562 31.628906 47.785156 33.292969 52.90625 C 34.929688 57.949219 33.503906 62.375 32.5625 64.78125 C 30.359375 63.261719 26.371094 60.203125 24.707031 55.082031 C 23.070312 50.039062 24.496094 45.613281 25.4375 43.207031 Z M 134.5625 43.207031 C 135.503906 45.613281 136.933594 50.035156 135.292969 55.078125 L 135.292969 55.082031 C 133.628906 60.203125 129.640625 63.261719 127.4375 64.78125 C 126.496094 62.375 125.070312 57.949219 126.707031 52.90625 C 128.371094 47.785156 132.359375 44.726562 134.5625 43.207031 Z M 49.855469 54.660156 C 49.875 57.199219 49.625 61.605469 46.472656 65.546875 C 43.265625 69.558594 38.695312 70.96875 36.144531 71.609375 C 36.125 69.070312 36.375 64.664062 39.53125 60.71875 C 42.738281 56.707031 47.304688 55.300781 49.855469 54.660156 Z M 110.144531 54.660156 C 112.695312 55.300781 117.261719 56.707031 120.46875 60.71875 C 122.441406 63.183594 123.277344 65.832031 123.625 68.089844 C 123.625 68.101562 123.628906 68.117188 123.628906 68.128906 C 123.832031 69.46875 123.863281 70.667969 123.855469 71.609375 C 121.304688 70.96875 116.734375 69.558594 113.527344 65.546875 C 110.375 61.605469 110.128906 57.199219 110.144531 54.660156 Z M 18 60 C 16.894531 60 16 60.894531 16 62 C 16 63.105469 16.894531 64 18 64 C 19.105469 64 20 63.105469 20 62 C 20 60.894531 19.105469 60 18 60 Z M 142 60 C 140.894531 60 140 60.894531 140 62 C 140 63.105469 140.894531 64 142 64 C 143.105469 64 144 63.105469 144 62 C 144 60.894531 143.105469 60 142 60 Z M 54 70 C 52.894531 70 52 70.894531 52 72 C 52 73.105469 52.894531 74 54 74 C 55.105469 74 56 73.105469 56 72 C 56 70.894531 55.105469 70 54 70 Z M 106 70 C 104.894531 70 104 70.894531 104 72 C 104 73.105469 104.894531 74 106 74 C 107.105469 74 108 73.105469 108 72 C 108 70.894531 107.105469 70 106 70 Z M 20.144531 74.660156 C 22.695312 75.300781 27.261719 76.710938 30.46875 80.71875 C 33.625 84.664062 33.875 89.070312 33.855469 91.609375 C 31.304688 90.96875 26.734375 89.558594 23.527344 85.546875 C 20.375 81.605469 20.125 77.199219 20.144531 74.660156 Z M 139.855469 74.660156 C 139.871094 77.199219 139.625 81.605469 136.472656 85.546875 C 133.265625 89.558594 128.695312 90.96875 126.144531 91.609375 C 126.125 89.070312 126.375 84.664062 129.53125 80.71875 C 132.738281 76.707031 137.304688 75.300781 139.855469 74.660156 Z M 46 81.890625 C 47.542969 83.828125 50 87.324219 50 92 C 50 96.621094 47.609375 100.074219 46.0625 102.023438 C 45.496094 101.324219 44.945312 100.605469 44.414062 99.871094 C 43.179688 97.890625 42 95.238281 42 92 C 42 87.324219 44.457031 83.828125 46 81.890625 Z M 114 81.890625 C 115.542969 83.828125 118 87.324219 118 92 C 118 95.238281 116.820312 97.890625 115.585938 99.871094 C 115.054688 100.605469 114.503906 101.324219 113.9375 102.023438 C 112.390625 100.074219 110 96.621094 110 92 C 110 87.324219 112.457031 83.828125 114 81.890625 Z M 62 88 C 60.894531 88 60 88.894531 60 90 C 60 91.105469 60.894531 92 62 92 C 63.105469 92 64 91.105469 64 90 C 64 88.894531 63.105469 88 62 88 Z M 98 88 C 96.894531 88 96 88.894531 96 90 C 96 91.105469 96.894531 92 98 92 C 99.105469 92 100 91.105469 100 90 C 100 88.894531 99.105469 88 98 88 Z M 20 94 C 18.894531 94 18 94.894531 18 96 C 18 97.105469 18.894531 98 20 98 C 21.105469 98 22 97.105469 22 96 C 22 94.894531 21.105469 94 20 94 Z M 140 94 C 138.894531 94 138 94.894531 138 96 C 138 97.105469 138.894531 98 140 98 C 141.105469 98 142 97.105469 142 96 C 142 94.894531 141.105469 94 140 94 Z M 60.566406 103.074219 C 62.777344 104.273438 66.371094 106.503906 68.292969 110.65625 C 70.175781 114.726562 69.53125 118.574219 68.960938 120.925781 C 66.75 119.726562 63.15625 117.496094 61.234375 113.34375 C 59.351562 109.273438 59.996094 105.425781 60.566406 103.074219 Z M 99.433594 103.074219 C 100.003906 105.425781 100.648438 109.273438 98.765625 113.34375 C 96.84375 117.496094 93.25 119.726562 91.039062 120.925781 C 90.46875 118.574219 89.824219 114.726562 91.707031 110.65625 C 93.628906 106.503906 97.222656 104.273438 99.433594 103.074219 Z M 34.351562 104.046875 C 36.03125 103.953125 37.777344 104.074219 39.457031 104.546875 C 44.46875 105.960938 47.3125 109.527344 48.785156 111.628906 C 46.3125 112.609375 41.636719 114.1875 36.542969 112.75 C 31.53125 111.335938 28.6875 107.773438 27.214844 105.667969 C 28.871094 105.011719 30.941406 104.234375 34.351562 104.046875 Z M 125.648438 104.046875 C 129.058594 104.234375 131.128906 105.011719 132.785156 105.667969 C 131.3125 107.773438 128.46875 111.335938 123.457031 112.75 C 118.363281 114.1875 113.6875 112.609375 111.214844 111.628906 C 112.6875 109.527344 115.53125 105.960938 120.542969 104.546875 C 122.222656 104.074219 123.96875 103.953125 125.648438 104.046875 Z M 80 118 C 78.894531 118 78 118.894531 78 120 C 78 121.105469 78.894531 122 80 122 C 81.105469 122 82 121.105469 82 120 C 82 118.894531 81.105469 118 80 118 Z M 34 120 C 32.894531 120 32 120.894531 32 122 C 32 123.105469 32.894531 124 34 124 C 35.105469 124 36 123.105469 36 122 C 36 120.894531 35.105469 120 34 120 Z M 126 120 C 124.894531 120 124 120.894531 124 122 C 124 123.105469 124.894531 124 126 124 C 127.105469 124 128 123.105469 128 122 C 128 120.894531 127.105469 120 126 120 Z M 55.828125 122.007812 C 60.589844 121.882812 64.054688 124.167969 66.027344 125.667969 C 64.011719 127.269531 60.339844 129.871094 55.492188 130 C 50.730469 130.125 47.261719 127.835938 45.289062 126.335938 C 47.304688 124.734375 50.980469 122.136719 55.828125 122.007812 Z M 104.171875 122.007812 C 109.019531 122.136719 112.695312 124.734375 114.710938 126.335938 C 112.738281 127.835938 109.269531 130.125 104.507812 130 C 99.660156 129.871094 95.988281 127.269531 93.972656 125.667969 C 95.945312 124.167969 99.410156 121.882812 104.171875 122.007812 Z M 68 146 C 66.894531 146 66 146.894531 66 148 C 66 149.105469 66.894531 150 68 150 C 69.105469 150 70 149.105469 70 148 C 70 146.894531 69.105469 146 68 146 Z M 92 146 C 90.894531 146 90 146.894531 90 148 C 90 149.105469 90.894531 150 92 150 C 93.105469 150 94 149.105469 94 148 C 94 146.894531 93.105469 146 92 146 Z M 92 146 "/>
</g>
</svg>
