<?xml version="1.0" encoding="UTF-8"?>
<svg xmlns="http://www.w3.org/2000/svg" xmlns:xlink="http://www.w3.org/1999/xlink" viewBox="0 0 150 150" width="150px" height="150px">
<g id="surface3142658">
<path style=" stroke:none;fill-rule:nonzero;fill:rgb(90.588236%,29.803923%,23.529412%);fill-opacity:1;" d="M 104.992188 6 C 103.917969 6.003906 102.925781 6.582031 102.390625 7.519531 C 102.390625 7.519531 96.683594 16.875 99.972656 26.351562 L 99.964844 26.351562 C 101.722656 31.414062 105.734375 35.085938 109.171875 37.652344 C 111.808594 39.621094 113.789062 40.695312 114.777344 41.210938 C 115.535156 42.5625 116.191406 43.972656 116.757812 45.429688 C 112.945312 42.222656 108.847656 40.425781 106.21875 39.257812 C 105.851562 39.09375 105.453125 39.007812 105.054688 39 C 104.246094 38.984375 103.472656 39.296875 102.898438 39.859375 C 102.324219 40.425781 102 41.195312 102 42 C 102 46.4375 102.003906 52.777344 106.179688 59.144531 C 110.0625 65.066406 116.335938 67.460938 119.890625 68.394531 C 119.742188 71.585938 119.308594 74.679688 118.605469 77.671875 C 117.433594 74.941406 115.539062 72.230469 112.648438 69.730469 C 112.113281 69.269531 111.429688 69.011719 110.726562 69 C 109.949219 68.992188 109.203125 69.28125 108.640625 69.808594 C 108.640625 69.808594 102 76.101562 102 86.722656 C 102 91.839844 104.703125 96.121094 107.496094 99.140625 C 107.257812 99.40625 107.046875 99.695312 106.804688 99.953125 C 105.046875 101.832031 102.636719 103.765625 99.972656 105.703125 C 100.15625 105.160156 100.378906 104.601562 100.53125 104.078125 C 101.765625 99.824219 101.996094 96.191406 101.996094 96.191406 C 102.046875 95.382812 101.769531 94.585938 101.226562 93.984375 C 100.679688 93.382812 99.917969 93.027344 99.105469 93 C 98.953125 92.996094 98.804688 93 98.65625 93.015625 C 98.65625 93.015625 88.171875 93.941406 81.621094 101.097656 C 77.984375 105.070312 77.742188 110.335938 78.148438 114.332031 C 78.335938 116.214844 78.703125 117.875 79.03125 119.136719 C 77.539062 120.132812 76.203125 121.113281 75 122.089844 C 73.796875 121.113281 72.460938 120.132812 70.96875 119.136719 C 71.296875 117.875 71.664062 116.214844 71.851562 114.332031 C 72.257812 110.335938 72.015625 105.070312 68.378906 101.097656 C 61.828125 93.941406 51.34375 93.015625 51.34375 93.015625 C 51.246094 93.007812 51.148438 93 51.046875 93 C 50.210938 92.988281 49.40625 93.324219 48.828125 93.929688 C 48.25 94.539062 47.953125 95.359375 48.003906 96.191406 C 48.003906 96.191406 48.234375 99.824219 49.46875 104.078125 C 49.621094 104.597656 49.816406 105.144531 49.996094 105.683594 C 47.347656 103.753906 44.949219 101.824219 43.195312 99.953125 C 42.953125 99.695312 42.742188 99.40625 42.503906 99.140625 C 45.296875 96.121094 48 91.839844 48 86.722656 C 48 76.101562 41.359375 69.808594 41.359375 69.808594 C 40.769531 69.257812 39.980469 68.964844 39.167969 69.003906 C 38.5 69.039062 37.859375 69.292969 37.351562 69.730469 C 34.460938 72.230469 32.566406 74.941406 31.394531 77.671875 C 30.691406 74.679688 30.257812 71.585938 30.109375 68.394531 C 33.664062 67.460938 39.9375 65.066406 43.820312 59.144531 C 47.996094 52.777344 48 46.4375 48 42 C 48 41.1875 47.671875 40.414062 47.089844 39.847656 C 46.507812 39.28125 45.722656 38.976562 44.914062 39 C 44.523438 39.011719 44.136719 39.097656 43.78125 39.257812 C 41.164062 40.421875 37.089844 42.207031 33.292969 45.382812 C 33.855469 43.949219 34.476562 42.546875 35.222656 41.210938 C 36.210938 40.695312 38.191406 39.621094 40.828125 37.652344 C 44.265625 35.085938 48.277344 31.414062 50.035156 26.351562 L 50.027344 26.351562 C 53.316406 16.875 47.609375 7.519531 47.609375 7.519531 C 47.046875 6.535156 45.988281 5.953125 44.859375 6.007812 C 44.304688 6.03125 43.769531 6.210938 43.3125 6.523438 C 43.3125 6.523438 30 14.980469 30 28.089844 L 30 38.269531 C 29.550781 39.070312 29.105469 39.878906 28.714844 40.707031 C 27.925781 37.738281 26.859375 35.308594 25.769531 33.394531 C 23.613281 29.601562 21.164062 27.640625 21.164062 27.640625 C 20.609375 27.203125 19.914062 26.976562 19.207031 27 C 18.230469 27.035156 17.328125 27.546875 16.796875 28.371094 C 13.628906 33.28125 11.15625 41.121094 12.234375 48.441406 C 13.441406 56.632812 20.730469 60.558594 24.082031 62.023438 C 24.027344 63.339844 24 64.664062 24 66 C 24 66.074219 24.011719 66.148438 24.011719 66.222656 C 22.382812 64.996094 20.628906 63.992188 18.972656 63.207031 C 14.136719 60.90625 9.5625 60.054688 9.5625 60.054688 C 9.367188 60.015625 9.164062 59.996094 8.964844 60 C 8.105469 60.011719 7.289062 60.390625 6.726562 61.042969 C 6.164062 61.695312 5.910156 62.558594 6.03125 63.410156 C 6.03125 63.410156 7.371094 75.152344 12.523438 82.691406 C 15.777344 87.460938 20.582031 89.027344 24.214844 89.195312 C 26.035156 89.28125 27.660156 89.0625 28.828125 88.820312 C 29.601562 90.574219 30.460938 92.269531 31.398438 93.914062 C 29.625 93.355469 27.78125 93 25.886719 93 C 19.34375 93 13.554688 96.375 13.554688 96.375 C 12.203125 97.121094 11.636719 98.765625 12.246094 100.183594 C 12.246094 100.183594 13.6875 103.570312 16.546875 106.9375 C 19.40625 110.308594 23.984375 114 30.199219 114 C 37.109375 114 41.933594 111.144531 44.519531 109.089844 C 46.777344 110.84375 49.222656 112.515625 51.710938 114.140625 C 46.351562 114.476562 42.097656 115.847656 39.160156 117.316406 C 35.800781 118.996094 33.878906 120.878906 33.878906 120.878906 C 33.242188 121.515625 32.925781 122.402344 33.015625 123.296875 C 33.105469 124.191406 33.589844 124.996094 34.335938 125.496094 C 34.335938 125.496094 43.667969 132 54 132 C 61.152344 132 65.324219 127.355469 67.425781 124.035156 C 68.542969 124.777344 69.601562 125.496094 70.476562 126.140625 C 66.910156 129.648438 64.617188 133.253906 63.199219 136.921875 C 62.605469 138.46875 63.375 140.207031 64.921875 140.800781 C 66.46875 141.394531 68.207031 140.625 68.800781 139.078125 C 70.007812 135.953125 71.804688 133.085938 75 130.058594 C 78.195312 133.085938 79.992188 135.953125 81.199219 139.078125 C 81.792969 140.625 83.53125 141.394531 85.078125 140.800781 C 86.625 140.207031 87.394531 138.46875 86.800781 136.921875 C 85.382812 133.253906 83.089844 129.648438 79.523438 126.140625 C 80.390625 125.5 81.449219 124.789062 82.558594 124.054688 C 84.679688 127.375 88.890625 132 96 132 C 106.332031 132 115.664062 125.496094 115.664062 125.496094 C 116.410156 124.996094 116.894531 124.191406 116.984375 123.296875 C 117.074219 122.402344 116.757812 121.515625 116.121094 120.878906 C 116.121094 120.878906 114.199219 118.996094 110.839844 117.316406 C 107.910156 115.851562 103.667969 114.480469 98.332031 114.140625 C 100.824219 112.523438 103.226562 110.839844 105.480469 109.089844 C 108.066406 111.144531 112.890625 114 119.800781 114 C 126.015625 114 130.59375 110.308594 133.453125 106.9375 C 136.3125 103.570312 137.753906 100.183594 137.753906 100.183594 C 138.363281 98.765625 137.796875 97.121094 136.445312 96.375 C 136.445312 96.375 130.65625 93 124.113281 93 C 122.21875 93 120.375 93.355469 118.597656 93.914062 C 119.539062 92.269531 120.398438 90.574219 121.171875 88.820312 C 122.339844 89.0625 123.964844 89.28125 125.78125 89.195312 C 129.417969 89.027344 134.222656 87.460938 137.476562 82.691406 C 142.628906 75.152344 143.96875 63.410156 143.96875 63.410156 C 144.089844 62.554688 143.832031 61.691406 143.269531 61.039062 C 142.703125 60.386719 141.886719 60.007812 141.023438 60 C 140.828125 60 140.628906 60.015625 140.4375 60.050781 C 140.4375 60.050781 135.863281 60.90625 131.027344 63.203125 C 129.371094 63.992188 127.617188 64.996094 125.988281 66.222656 C 125.996094 66.148438 126 66.074219 126 66 C 126 64.664062 125.972656 63.339844 125.917969 62.023438 C 129.269531 60.558594 136.558594 56.632812 137.765625 48.441406 C 138.84375 41.121094 136.371094 33.28125 133.203125 28.371094 C 132.644531 27.511719 131.691406 26.996094 130.671875 27 C 130.003906 27.003906 129.359375 27.226562 128.835938 27.636719 C 128.835938 27.636719 126.386719 29.601562 124.230469 33.390625 C 123.140625 35.308594 122.074219 37.738281 121.285156 40.703125 C 120.894531 39.878906 120.449219 39.070312 120 38.265625 L 120 28.089844 C 120 14.980469 106.6875 6.519531 106.6875 6.519531 C 106.1875 6.179688 105.597656 6 104.996094 6 Z M 43.796875 14.203125 C 44.773438 17.042969 45.628906 20.734375 44.359375 24.382812 C 43.28125 27.496094 40.1875 30.644531 37.234375 32.847656 C 36.578125 33.339844 36.597656 33.222656 36 33.613281 L 36 28.089844 C 36 21.734375 40.722656 16.941406 43.796875 14.203125 Z M 106.203125 14.203125 C 109.277344 16.941406 114 21.734375 114 28.089844 L 114 33.617188 C 113.402344 33.222656 113.421875 33.339844 112.765625 32.847656 C 109.8125 30.644531 106.71875 27.496094 105.640625 24.382812 C 104.371094 20.734375 105.226562 17.042969 106.203125 14.203125 Z M 20.144531 35.824219 C 20.355469 36.152344 20.332031 35.960938 20.554688 36.359375 C 22.238281 39.316406 24 44.011719 24 51 L 24 54.984375 C 21.386719 53.394531 18.703125 51.179688 18.167969 47.5625 C 17.625 43.863281 18.734375 39.511719 20.144531 35.824219 Z M 129.855469 35.824219 C 131.265625 39.511719 132.375 43.863281 131.832031 47.5625 C 131.296875 51.179688 128.613281 53.394531 126 54.984375 L 126 51 C 126 44.011719 127.761719 39.316406 129.445312 36.359375 C 129.667969 35.960938 129.644531 36.152344 129.855469 35.824219 Z M 41.707031 46.957031 C 41.4375 49.835938 40.835938 52.765625 38.804688 55.855469 C 36.742188 59.003906 33.535156 60.695312 30.808594 61.726562 C 31.660156 57.175781 33.347656 53.589844 35.847656 51.148438 C 37.671875 49.363281 39.710938 48.050781 41.707031 46.957031 Z M 108.292969 46.957031 C 110.289062 48.050781 112.328125 49.363281 114.152344 51.144531 C 116.652344 53.589844 118.339844 57.175781 119.191406 61.726562 C 116.464844 60.695312 113.257812 59.003906 111.195312 55.855469 C 109.164062 52.765625 108.5625 49.835938 108.292969 46.957031 Z M 13.042969 67.492188 C 14.417969 67.921875 14.699219 67.816406 16.394531 68.625 C 20.421875 70.539062 23.964844 73.390625 24.464844 77.03125 C 24.476562 77.144531 24.5 77.253906 24.527344 77.359375 L 25.964844 83.019531 C 25.324219 83.105469 25.332031 83.246094 24.5 83.207031 C 22.132812 83.097656 19.597656 82.414062 17.480469 79.304688 C 15.238281 76.027344 13.917969 71.292969 13.042969 67.492188 Z M 136.957031 67.492188 C 136.082031 71.292969 134.761719 76.027344 132.519531 79.304688 C 130.402344 82.414062 127.867188 83.097656 125.5 83.210938 C 124.667969 83.246094 124.675781 83.105469 124.035156 83.023438 L 125.472656 77.363281 C 125.5 77.253906 125.523438 77.144531 125.535156 77.035156 C 126.035156 73.390625 129.578125 70.539062 133.605469 68.625 C 135.300781 67.816406 135.582031 67.921875 136.957031 67.496094 Z M 39.109375 76.675781 C 40.484375 78.691406 42 81.714844 42 86.722656 C 42 88.984375 40.515625 91.539062 38.867188 93.753906 C 37.910156 92.375 37.175781 91.847656 36.40625 89.25 C 35.277344 85.457031 35.289062 81.203125 39.113281 76.675781 Z M 110.890625 76.675781 C 114.710938 81.203125 114.722656 85.457031 113.597656 89.25 C 112.824219 91.847656 112.089844 92.375 111.136719 93.757812 C 109.484375 91.539062 108 88.984375 108 86.726562 C 108 81.714844 109.515625 78.691406 110.890625 76.675781 Z M 25.886719 99 C 28.847656 99 33.199219 100.964844 36.585938 103.117188 C 38.339844 104.238281 38.5625 104.53125 39.597656 105.34375 C 37.726562 106.652344 34.890625 108 30.199219 108 C 26.375 108 23.351562 105.691406 21.125 103.0625 C 19.980469 101.710938 19.957031 101.359375 19.394531 100.371094 C 21.242188 99.683594 23.613281 99 25.886719 99 Z M 124.113281 99 C 126.386719 99 128.757812 99.683594 130.605469 100.371094 C 130.042969 101.359375 130.019531 101.710938 128.875 103.0625 C 126.648438 105.691406 123.625 108 119.800781 108 C 115.109375 108 112.273438 106.652344 110.402344 105.34375 C 111.4375 104.53125 111.660156 104.238281 113.414062 103.117188 C 116.800781 100.964844 121.152344 99 124.113281 99 Z M 54.785156 100.03125 C 57.75 100.894531 61.355469 102.316406 63.953125 105.152344 C 65.8125 107.179688 66.210938 110.566406 65.886719 113.726562 C 65.808594 114.523438 65.707031 114.46875 65.570312 115.15625 L 61.085938 111.640625 C 61.007812 111.578125 60.925781 111.519531 60.84375 111.46875 C 58.195312 109.785156 56.269531 105.976562 55.230469 102.40625 C 54.855469 101.117188 54.972656 101.058594 54.785156 100.03125 Z M 95.214844 100.03125 C 95.027344 101.058594 95.144531 101.117188 94.769531 102.40625 C 93.730469 105.976562 91.804688 109.785156 89.15625 111.46875 C 89.074219 111.519531 88.992188 111.578125 88.917969 111.640625 L 84.429688 115.15625 C 84.292969 114.46875 84.191406 114.523438 84.113281 113.726562 C 83.789062 110.566406 84.1875 107.179688 86.046875 105.152344 C 88.644531 102.316406 92.25 100.894531 95.214844 100.03125 Z M 54 120 C 57.96875 120 60.4375 120.597656 62.09375 121.136719 C 60.8125 123.296875 58.632812 126 54 126 C 49.367188 126 45.085938 124.265625 41.851562 122.679688 C 44.496094 121.359375 48.507812 120 54 120 Z M 96 120 C 101.492188 120 105.503906 121.359375 108.148438 122.679688 C 104.914062 124.265625 100.632812 126 96 126 C 91.367188 126 89.1875 123.296875 87.90625 121.136719 C 89.5625 120.597656 92.03125 120 96 120 Z M 96 120 "/>
</g>
</svg>
